<svg xmlns="http://www.w3.org/2000/svg" xmlns:xlink="http://www.w3.org/1999/xlink" width="1212" height="280" viewBox="0 0 1212 280" fill="none"><g ><path     fill="#FFFFFF"  d="M297.4 69L297.4 83.8L235.8 83.8L235.8 132.6L288 132.6L288 146.8L235.8 146.8L235.8 210L217.6 210L217.6 69L297.4 69ZM337.2 69L337.2 210L319 210L319 69L337.2 69ZM384.6 83.8L384.6 132L438.2 132L438.2 146L384.6 146L384.6 195.2L444.2 195.2L444.2 210L366.4 210L366.4 69L444.2 69L444.2 83.8L384.6 83.8ZM485.8 195.8L535.8 195.8L535.8 210L467.6 210L467.6 69L485.8 69L485.8 195.8ZM673.2 139.4Q673.2 160.8 664.6 176.7Q656 192.6 639.3 201.3Q622.6 210 599.2 210L554.4 210L554.4 69L599.2 69Q622.6 69 639.3 77.5Q656 86 664.6 101.9Q673.2 117.8 673.2 139.4ZM597.8 193.6Q625.4 193.6 640 179.4Q654.6 165.2 654.6 139.4Q654.6 113.6 640.1 99.3Q625.6 85 597.8 85L572.6 85L572.6 193.6L597.8 193.6ZM760.2 67.6Q786 67.6 802.8 80.3Q819.6 93 826 115L806.8 115Q801.4 101 789.4 92.7Q777.4 84.4 760 84.4Q746.2 84.4 735.3 91.1Q724.4 97.8 718.1 110.3Q711.8 122.8 711.8 139.6Q711.8 156.2 718.1 168.6Q724.4 181 735.3 187.7Q746.2 194.4 760 194.4Q777.4 194.4 789.4 186.1Q801.4 177.8 806.8 163.8L826 163.8Q819.6 185.8 802.8 198.5Q786 211.2 760.2 211.2Q740.4 211.2 725.2 202.1Q710 193 701.5 176.7Q693 160.4 693 139.6Q693 118.6 701.5 102.2Q710 85.8 725.2 76.7Q740.4 67.6 760.2 67.6ZM915 67.2Q934.6 67.2 950.3 76.4Q966 85.6 975 102.1Q984 118.6 984 139.4Q984 160.2 975 176.7Q966 193.2 950.3 202.4Q934.6 211.6 915 211.6Q895.4 211.6 879.5 202.4Q863.6 193.2 854.6 176.7Q845.6 160.2 845.6 139.4Q845.6 118.6 854.6 102.1Q863.6 85.6 879.5 76.4Q895.4 67.2 915 67.2ZM915 84.2Q900.4 84.2 888.9 90.9Q877.4 97.6 870.9 110.1Q864.4 122.6 864.4 139.4Q864.4 156 870.9 168.6Q877.4 181.2 888.9 187.9Q900.4 194.6 915 194.6Q929.4 194.6 940.9 187.8Q952.4 181 958.9 168.5Q965.4 156 965.4 139.4Q965.4 122.6 958.9 110.1Q952.4 97.6 940.9 90.9Q929.4 84.2 915 84.2ZM1083.4 210L1046.6 152.4L1026.8 152.4L1026.8 210L1008.6 210L1008.6 69L1055 69Q1079 69 1091 80.5Q1103 92 1103 111Q1103 128.2 1093.4 138.7Q1083.8 149.2 1065.6 151.8L1104 210L1083.4 210ZM1026.8 139.2L1053.4 139.2Q1084.4 139.2 1084.4 112Q1084.4 84.8 1053.4 84.8L1026.8 84.8L1026.8 139.2ZM1143.4 83.8L1143.4 132L1197 132L1197 146L1143.4 146L1143.4 195.2L1203 195.2L1203 210L1125.2 210L1125.2 69L1203 69L1203 83.8L1143.4 83.8Z"></path><path fill-rule="evenodd"  fill="rgba(0, 0, 0, 1)"  d="M979.389,99.7057c6.40733,11.7462 9.611,24.97763 9.611,39.6943c0,14.71667 -3.20367,27.948 -9.611,39.694c-6.44267,11.812 -15.29633,21.01867 -26.561,27.62c-11.24733,6.59067 -23.85667,9.886 -37.828,9.886c-13.96133,0 -26.62933,-3.29067 -38.004,-9.872c-11.40933,-6.60133 -20.33767,-15.81267 -26.785,-27.634c-6.40733,-11.746 -9.611,-24.97733 -9.611,-39.694c0,-14.71667 3.20367,-27.9481 9.611,-39.6943c6.44733,-11.8208 15.37567,-21.03193 26.785,-27.6334c11.37467,-6.58153 24.04267,-9.8723 38.004,-9.8723c13.97133,0 26.58067,3.29537 37.828,9.8861c11.26467,6.60093 20.11833,15.80747 26.561,27.6196zM830.801,113.603l1.861,6.397h-29.292l-1.235,-3.201c-3.23067,-8.37533 -8.42367,-15.0376 -15.579,-19.9868c-7.14467,-4.94147 -15.99667,-7.4122 -26.556,-7.4122c-8.25733,0 -15.618,1.98653 -22.082,5.9596c-6.46067,3.9716 -11.57833,9.70173 -15.353,17.1904c-3.84333,7.626 -5.765,16.64267 -5.765,27.05c0,10.26867 1.91933,19.18033 5.758,26.735c3.774,7.42933 8.894,13.131 15.36,17.105c6.464,3.97333 13.82467,5.96 22.082,5.96c10.55933,0 19.41133,-2.47067 26.556,-7.412c7.15533,-4.94933 12.34833,-11.61167 15.579,-19.987l1.235,-3.201h29.292l-1.861,6.397c-4.57533,15.728 -12.904,28.15867 -24.986,37.292c-12.092,9.14067 -27.297,13.711 -45.615,13.711c-14.12133,0 -26.644,-3.27 -37.568,-9.81c-10.94133,-6.55067 -19.463,-15.67667 -25.565,-27.378c-6.04467,-11.59133 -9.067,-24.72867 -9.067,-39.412c0,-14.81267 3.02033,-28.04627 9.061,-39.7008c6.102,-11.7734 14.62567,-20.93647 25.571,-27.4892c10.924,-6.54 23.44667,-9.81 37.568,-9.81c18.318,0 33.523,4.57047 45.615,13.7114c12.082,9.13313 20.41067,21.56367 24.986,37.2916zM240.8,88.8v38.8h52.2v24.2h-52.2v63.2h-28.2v-151h89.8v24.8zM240.8,83.8h56.6v-14.8h-79.8v141h18.2v-63.2h52.2v-14.2h-52.2v-48.8zM314,215v-151h28.2v151zM389.6,83.8h54.6v-14.8h-77.8v141h77.8v-14.8h-59.6v-49.2h53.6v-14h-53.6v-48.2zM389.6,127h53.6v24h-53.6v39.2h59.6v24.8h-87.8v-151h87.8v24.8h-59.6zM540.8,215h-78.2v-151h28.2v126.8h50zM641.61,205.734c-11.85733,6.17733 -25.994,9.266 -42.41,9.266h-49.8v-151h49.8c16.39933,0 30.522,3.01467 42.368,9.044c12.05933,6.13787 21.20267,14.96363 27.43,26.4773c6.13467,11.3418 9.202,24.6347 9.202,39.8787c0,15.11067 -3.06733,28.337 -9.202,39.679c-6.21933,11.498 -15.34867,20.383 -27.388,26.655zM1031.8,157.4v57.6h-28.2v-151h51.4c17.34,0 30.49333,4.2967 39.46,12.8901c9.02667,8.65087 13.54,20.02083 13.54,34.1099c0,12.76067 -3.63667,23.11867 -10.91,31.074c-5.77333,6.31733 -13.51,10.714 -23.21,13.19l39.41,59.736h-32.63l-1.47,-2.308l-35.33,-55.292zM1046.6,152.4l36.8,57.6h20.6l-3.3,-5l-32.08,-48.617l-3.02,-4.583c1.84667,-0.264 3.63,-0.58933 5.35,-0.976c9.54,-2.14933 17.02333,-6.19067 22.45,-12.124c6.4,-7 9.6,-16.23333 9.6,-27.7c0,-12.66667 -4,-22.83333 -12,-30.5c-8,-7.66667 -20,-11.5 -36,-11.5h-46.4v141h18.2v-57.6zM1148.4,83.8h54.6v-14.8h-77.8v141h77.8v-14.8h-59.6v-49.2h53.6v-14h-53.6v-48.2zM1148.4,127h53.6v24h-53.6v39.2h59.6v24.8h-87.8v-151h87.8v24.8h-59.6zM950.3,76.4c-10.46667,-6.13333 -22.23333,-9.2 -35.3,-9.2c-13.06667,0 -24.9,3.06667 -35.5,9.2c-10.6,6.13333 -18.9,14.7 -24.9,25.7c-6,11 -9,23.43333 -9,37.3c0,13.86667 3,26.3 9,37.3c6,11 14.3,19.56667 24.9,25.7c10.6,6.13333 22.43333,9.2 35.5,9.2c13.06667,0 24.83333,-3.06667 35.3,-9.2c10.46667,-6.13333 18.7,-14.7 24.7,-25.7c6,-11 9,-23.43333 9,-37.3c0,-13.86667 -3,-26.3 -9,-37.3c-6,-11 -14.23333,-19.56667 -24.7,-25.7zM802.8,80.3c-11.2,-8.46667 -25.4,-12.7 -42.6,-12.7c-13.2,0 -24.86667,3.03333 -35,9.1c-10.13333,6.06667 -18.03333,14.56667 -23.7,25.5c-5.66667,10.93333 -8.5,23.4 -8.5,37.4c0,13.86667 2.83333,26.23333 8.5,37.1c5.66667,10.86667 13.56667,19.33333 23.7,25.4c10.13333,6.06667 21.8,9.1 35,9.1c17.2,0 31.4,-4.23333 42.6,-12.7c9.89533,-7.48 17.08467,-17.38 21.568,-29.7c0.59067,-1.62467 1.13467,-3.29133 1.632,-5h-19.2c-3.6,9.33333 -9.4,16.76667 -17.4,22.3c-8,5.53333 -17.8,8.3 -29.4,8.3c-9.2,0 -17.43333,-2.23333 -24.7,-6.7c-7.26667,-4.46667 -13,-10.83333 -17.2,-19.1c-4.2,-8.26667 -6.3,-17.93333 -6.3,-29c0,-11.2 2.1,-20.96667 6.3,-29.3c4.2,-8.33333 9.93333,-14.73333 17.2,-19.2c7.26667,-4.46667 15.5,-6.7 24.7,-6.7c11.6,0 21.4,2.76667 29.4,8.3c8,5.53333 13.8,12.96667 17.4,22.3h19.2c-0.49733,-1.70867 -1.04133,-3.37533 -1.632,-5c-4.48333,-12.31973 -11.67267,-22.21973 -21.568,-29.7zM337.2,74v-5h-18.2v141h18.2zM485.8,69h-18.2v141h68.2v-14.2h-50v-121.8zM554.4,69v141h44.8c15.6,0 28.96667,-2.9 40.1,-8.7c11.13333,-5.8 19.56667,-14 25.3,-24.6c5.73333,-10.6 8.6,-23.03333 8.6,-37.3c0,-14.4 -2.86667,-26.9 -8.6,-37.5c-5.73333,-10.6 -14.16667,-18.73333 -25.3,-24.4c-11.13333,-5.66667 -24.5,-8.5 -40.1,-8.5h-39.8zM888.9,90.9c7.66667,-4.46667 16.36667,-6.7 26.1,-6.7c9.6,0 18.23333,2.23333 25.9,6.7c7.66667,4.46667 13.66667,10.86667 18,19.2c4.33333,8.33333 6.5,18.1 6.5,29.3c0,11.06667 -2.16667,20.76667 -6.5,29.1c-4.33333,8.33333 -10.33333,14.76667 -18,19.3c-7.66667,4.53333 -16.3,6.8 -25.9,6.8c-9.73333,0 -18.43333,-2.23333 -26.1,-6.7c-7.66667,-4.46667 -13.66667,-10.9 -18,-19.3c-4.33333,-8.4 -6.5,-18.13333 -6.5,-29.2c0,-11.2 2.16667,-20.96667 6.5,-29.3c4.33333,-8.33333 10.33333,-14.73333 18,-19.2zM1073.35,128.642c4.03333,-3.538 6.05,-9.08533 6.05,-16.642c0,-7.55667 -2.01667,-13.10387 -6.05,-16.6416c-4.22,-3.7056 -10.87,-5.5584 -19.95,-5.5584h-21.6v44.4h21.6c9.08,0 15.73,-1.85267 19.95,-5.558zM1053.4,84.8c20.66667,0 31,9.06667 31,27.2c0,18.13333 -10.33333,27.2 -31,27.2h-26.6v-54.4h5zM640,179.4c-9.73333,9.46667 -23.8,14.2 -42.2,14.2h-25.2v-108.6h25.2c18.53333,0 32.63333,4.76667 42.3,14.3c9.66667,9.53333 14.5,22.9 14.5,40.1c0,17.2 -4.86667,30.53333 -14.6,40zM577.6,90v98.6h20.2c17.04667,0 29.95133,-4.26133 38.714,-12.784c8.724,-8.48533 13.086,-20.624 13.086,-36.416c0,-15.806 -4.337,-27.986 -13.011,-36.54c-8.69333,-8.57333 -21.623,-12.86 -38.789,-12.86zM875.336,112.407c-3.95733,7.61 -5.936,16.60767 -5.936,26.993c0,10.25733 1.98133,19.22667 5.944,26.908c3.888,7.53667 9.24567,13.294 16.073,17.272c6.88867,4.01333 14.74967,6.02 23.583,6.02c8.688,0 16.473,-2.03467 23.355,-6.104c6.846,-4.048 12.21567,-9.81567 16.109,-17.303c3.95733,-7.61 5.936,-16.541 5.936,-26.793c0,-10.38533 -1.97867,-19.383 -5.936,-26.993c-3.888,-7.47733 -9.24833,-13.20623 -16.081,-17.1867c-6.88867,-4.01353 -14.683,-6.0203 -23.383,-6.0203c-8.83333,0 -16.69433,2.00677 -23.583,6.0203c-6.83267,3.98047 -12.193,9.70937 -16.081,17.1867z"></path></g><rect x="0" y="60" width="160" height="160"   fill="#FFFFFF" ></rect></svg>